# xmcd
#
# Track frame offsets:
#	150
#	11567
#	23655
#	38270
#	53102
#	66650
#	80662
#	101570
#	114520
#	128115
#	141102
#	151152
#
# Disc length: 2208 seconds
#
# Revision: 2
# Processed by: cddbd v1.5.2PL0 Copyright (c) Steve Scherf et al.
# Submitted via: audiograbber 1.83.01
#
DISCID=94089e0c
DTITLE=Fogerty, John - The blue ridge rangers
DYEAR=1973
DGENRE=Country
TTITLE0=Blue ridge mountain blues
TTITLE1=Somewhere listening (for my name)
TTITLE2=You're the reason
TTITLE3=Jambalaya (on the bayou)
TTITLE4=She thinks I still care
TTITLE5=California blues (Blue yodel #4)
TTITLE6=Workin' on a building
TTITLE7=Please help me, I'm falling
TTITLE8=Have thine own way, Lord
TTITLE9=I ain't never
TTITLE10=Hearts of stone
TTITLE11=Today I started loving you again
EXTD=
EXTT0=
EXTT1=
EXTT2=
EXTT3=
EXTT4=
EXTT5=
EXTT6=
EXTT7=
EXTT8=
EXTT9=
EXTT10=
EXTT11=
PLAYORDER=
